<svg xmlns="http://www.w3.org/2000/svg" width="187.5" viewBox="0 0 187.5 112.5" height="112.5" version="1.0"><defs><clipPath id="a"><path d="M 70.238281 14.972656 L 117.402344 14.972656 L 117.402344 62.886719 L 70.238281 62.886719 Z M 70.238281 14.972656"/></clipPath><clipPath id="b"><path d="M 0.164062 55 L 15 55 L 15 74 L 0.164062 74 Z M 0.164062 55"/></clipPath></defs><g clip-path="url(#a)"><path fill="#FFF" d="M 113.449219 37.132812 L 115.769531 29.589844 L 108.234375 31.96875 C 108.125 32.003906 108.007812 31.949219 107.964844 31.839844 C 107.488281 30.625 106.972656 29.359375 106.433594 28.070312 L 100.183594 36.671875 C 100.125 36.753906 100.015625 36.785156 99.921875 36.746094 C 99.828125 36.707031 99.773438 36.609375 99.789062 36.507812 L 100.964844 29.375 C 101.449219 26.449219 101.929688 23.523438 102.414062 20.597656 C 100.957031 21.160156 99.53125 21.722656 98.171875 22.28125 C 98.070312 22.324219 97.953125 22.285156 97.898438 22.1875 L 93.726562 14.972656 L 89.613281 22.222656 C 89.558594 22.320312 89.445312 22.359375 89.339844 22.320312 C 87.984375 21.773438 86.554688 21.222656 85.089844 20.667969 C 86.007812 25.964844 86.925781 31.261719 87.84375 36.558594 C 87.863281 36.65625 87.808594 36.757812 87.714844 36.796875 C 87.621094 36.835938 87.511719 36.804688 87.453125 36.726562 L 81.128906 28.175781 C 80.609375 29.453125 80.105469 30.722656 79.632812 31.960938 C 79.589844 32.070312 79.472656 32.125 79.363281 32.09375 L 71.804688 29.777344 L 74.191406 37.296875 C 74.226562 37.40625 74.167969 37.523438 74.0625 37.566406 C 72.828125 38.046875 71.558594 38.5625 70.28125 39.09375 C 74.496094 42.144531 78.707031 45.195312 82.925781 48.242188 L 83.628906 48.753906 C 83.699219 48.804688 83.734375 48.894531 83.710938 48.980469 L 82.324219 54.800781 L 93.253906 52.476562 C 93.269531 52.476562 93.285156 52.472656 93.300781 52.472656 C 93.351562 52.472656 93.402344 52.492188 93.441406 52.523438 C 93.492188 52.570312 93.523438 52.632812 93.519531 52.703125 L 93.117188 62.886719 L 94.742188 62.878906 L 94.25 52.699219 C 94.246094 52.628906 94.277344 52.566406 94.328125 52.519531 C 94.378906 52.476562 94.449219 52.460938 94.515625 52.472656 L 105.464844 54.703125 L 104.027344 48.894531 C 104.007812 48.808594 104.039062 48.71875 104.109375 48.664062 L 117.375 38.894531 C 116.09375 38.375 114.820312 37.871094 113.582031 37.402344 C 113.472656 37.359375 113.417969 37.242188 113.449219 37.132812"/></g><g clip-path="url(#b)"><g fill="#FFF"><g><g><path d="M 15.6875 -3.796875 L 15.6875 0 L 1.734375 0 L 1.734375 -17.375 L 15.359375 -17.375 L 15.359375 -13.578125 L 6.59375 -13.578125 L 6.59375 -10.640625 L 14.3125 -10.640625 L 14.3125 -6.96875 L 6.59375 -6.96875 L 6.59375 -3.796875 Z M 15.6875 -3.796875" transform="translate(-.755 73.207)"/></g></g></g></g><g fill="#FFF"><g><g><path d="M 8.390625 0.21875 C 6.898438 0.21875 5.566406 -0.078125 4.390625 -0.671875 C 3.210938 -1.265625 2.296875 -2.085938 1.640625 -3.140625 C 0.992188 -4.203125 0.671875 -5.40625 0.671875 -6.75 C 0.671875 -8.09375 0.992188 -9.285156 1.640625 -10.328125 C 2.296875 -11.378906 3.210938 -12.195312 4.390625 -12.78125 C 5.566406 -13.375 6.898438 -13.671875 8.390625 -13.671875 C 9.910156 -13.671875 11.222656 -13.34375 12.328125 -12.6875 C 13.441406 -12.039062 14.226562 -11.132812 14.6875 -9.96875 L 11.046875 -8.109375 C 10.429688 -9.316406 9.535156 -9.921875 8.359375 -9.921875 C 7.515625 -9.921875 6.816406 -9.640625 6.265625 -9.078125 C 5.710938 -8.515625 5.4375 -7.738281 5.4375 -6.75 C 5.4375 -5.738281 5.710938 -4.945312 6.265625 -4.375 C 6.816406 -3.800781 7.515625 -3.515625 8.359375 -3.515625 C 9.535156 -3.515625 10.429688 -4.117188 11.046875 -5.328125 L 14.6875 -3.46875 C 14.226562 -2.3125 13.441406 -1.40625 12.328125 -0.75 C 11.222656 -0.101562 9.910156 0.21875 8.390625 0.21875 Z M 8.390625 0.21875" transform="translate(15.917 73.207)"/></g></g></g><g fill="#FFF"><g><g><path d="M 8.265625 0.21875 C 6.828125 0.21875 5.523438 -0.078125 4.359375 -0.671875 C 3.203125 -1.265625 2.296875 -2.085938 1.640625 -3.140625 C 0.992188 -4.203125 0.671875 -5.40625 0.671875 -6.75 C 0.671875 -8.070312 0.992188 -9.257812 1.640625 -10.3125 C 2.296875 -11.375 3.195312 -12.195312 4.34375 -12.78125 C 5.5 -13.375 6.804688 -13.671875 8.265625 -13.671875 C 9.722656 -13.671875 11.03125 -13.375 12.1875 -12.78125 C 13.34375 -12.195312 14.242188 -11.378906 14.890625 -10.328125 C 15.535156 -9.285156 15.859375 -8.09375 15.859375 -6.75 C 15.859375 -5.40625 15.535156 -4.203125 14.890625 -3.140625 C 14.242188 -2.085938 13.34375 -1.265625 12.1875 -0.671875 C 11.03125 -0.078125 9.722656 0.21875 8.265625 0.21875 Z M 8.265625 -3.515625 C 9.085938 -3.515625 9.765625 -3.800781 10.296875 -4.375 C 10.828125 -4.945312 11.09375 -5.738281 11.09375 -6.75 C 11.09375 -7.738281 10.828125 -8.515625 10.296875 -9.078125 C 9.765625 -9.640625 9.085938 -9.921875 8.265625 -9.921875 C 7.429688 -9.921875 6.75 -9.640625 6.21875 -9.078125 C 5.695312 -8.515625 5.4375 -7.738281 5.4375 -6.75 C 5.4375 -5.738281 5.695312 -4.945312 6.21875 -4.375 C 6.75 -3.800781 7.429688 -3.515625 8.265625 -3.515625 Z M 8.265625 -3.515625" transform="translate(30.878 73.207)"/></g></g></g><g fill="#FFF"><g><g><path d="M 18.265625 -17.375 L 18.265625 0 L 13.34375 0 L 13.34375 -6.78125 L 6.65625 -6.78125 L 6.65625 0 L 1.734375 0 L 1.734375 -17.375 L 6.65625 -17.375 L 6.65625 -10.84375 L 13.34375 -10.84375 L 13.34375 -17.375 Z M 18.265625 -17.375" transform="translate(47.4 73.207)"/></g></g></g><g fill="#FFF"><g><g><path d="M 8.265625 0.21875 C 6.828125 0.21875 5.523438 -0.078125 4.359375 -0.671875 C 3.203125 -1.265625 2.296875 -2.085938 1.640625 -3.140625 C 0.992188 -4.203125 0.671875 -5.40625 0.671875 -6.75 C 0.671875 -8.070312 0.992188 -9.257812 1.640625 -10.3125 C 2.296875 -11.375 3.195312 -12.195312 4.34375 -12.78125 C 5.5 -13.375 6.804688 -13.671875 8.265625 -13.671875 C 9.722656 -13.671875 11.03125 -13.375 12.1875 -12.78125 C 13.34375 -12.195312 14.242188 -11.378906 14.890625 -10.328125 C 15.535156 -9.285156 15.859375 -8.09375 15.859375 -6.75 C 15.859375 -5.40625 15.535156 -4.203125 14.890625 -3.140625 C 14.242188 -2.085938 13.34375 -1.265625 12.1875 -0.671875 C 11.03125 -0.078125 9.722656 0.21875 8.265625 0.21875 Z M 8.265625 -3.515625 C 9.085938 -3.515625 9.765625 -3.800781 10.296875 -4.375 C 10.828125 -4.945312 11.09375 -5.738281 11.09375 -6.75 C 11.09375 -7.738281 10.828125 -8.515625 10.296875 -9.078125 C 9.765625 -9.640625 9.085938 -9.921875 8.265625 -9.921875 C 7.429688 -9.921875 6.75 -9.640625 6.21875 -9.078125 C 5.695312 -8.515625 5.4375 -7.738281 5.4375 -6.75 C 5.4375 -5.738281 5.695312 -4.945312 6.21875 -4.375 C 6.75 -3.800781 7.429688 -3.515625 8.265625 -3.515625 Z M 8.265625 -3.515625" transform="translate(67.398 73.207)"/></g></g></g><g fill="#FFF"><g><g><path d="M 19.03125 -13.671875 C 20.6875 -13.671875 22.003906 -13.171875 22.984375 -12.171875 C 23.972656 -11.179688 24.46875 -9.6875 24.46875 -7.6875 L 24.46875 0 L 19.75 0 L 19.75 -6.921875 C 19.75 -7.867188 19.570312 -8.5625 19.21875 -9 C 18.863281 -9.445312 18.363281 -9.671875 17.71875 -9.671875 C 17.007812 -9.671875 16.4375 -9.421875 16 -8.921875 C 15.570312 -8.429688 15.359375 -7.679688 15.359375 -6.671875 L 15.359375 0 L 10.640625 0 L 10.640625 -6.921875 C 10.640625 -8.753906 9.960938 -9.671875 8.609375 -9.671875 C 7.878906 -9.671875 7.300781 -9.421875 6.875 -8.921875 C 6.445312 -8.429688 6.234375 -7.679688 6.234375 -6.671875 L 6.234375 0 L 1.515625 0 L 1.515625 -13.453125 L 6 -13.453125 L 6 -12.03125 C 6.5 -12.582031 7.09375 -12.992188 7.78125 -13.265625 C 8.46875 -13.535156 9.21875 -13.671875 10.03125 -13.671875 C 10.96875 -13.671875 11.804688 -13.492188 12.546875 -13.140625 C 13.296875 -12.796875 13.898438 -12.269531 14.359375 -11.5625 C 14.890625 -12.238281 15.5625 -12.757812 16.375 -13.125 C 17.1875 -13.488281 18.070312 -13.671875 19.03125 -13.671875 Z M 19.03125 -13.671875" transform="translate(83.921 73.207)"/></g></g></g><g fill="#FFF"><g><g><path d="M 15.265625 -6.703125 C 15.265625 -6.671875 15.238281 -6.28125 15.1875 -5.53125 L 5.40625 -5.53125 C 5.601562 -4.832031 5.988281 -4.296875 6.5625 -3.921875 C 7.132812 -3.554688 7.847656 -3.375 8.703125 -3.375 C 9.347656 -3.375 9.90625 -3.460938 10.375 -3.640625 C 10.851562 -3.828125 11.332031 -4.128906 11.8125 -4.546875 L 14.296875 -1.953125 C 12.984375 -0.503906 11.070312 0.21875 8.5625 0.21875 C 6.988281 0.21875 5.601562 -0.078125 4.40625 -0.671875 C 3.21875 -1.265625 2.296875 -2.085938 1.640625 -3.140625 C 0.992188 -4.203125 0.671875 -5.40625 0.671875 -6.75 C 0.671875 -8.070312 0.988281 -9.257812 1.625 -10.3125 C 2.257812 -11.363281 3.140625 -12.1875 4.265625 -12.78125 C 5.390625 -13.375 6.65625 -13.671875 8.0625 -13.671875 C 9.40625 -13.671875 10.617188 -13.394531 11.703125 -12.84375 C 12.796875 -12.289062 13.660156 -11.488281 14.296875 -10.4375 C 14.941406 -9.382812 15.265625 -8.140625 15.265625 -6.703125 Z M 8.09375 -10.328125 C 7.363281 -10.328125 6.753906 -10.117188 6.265625 -9.703125 C 5.773438 -9.285156 5.460938 -8.722656 5.328125 -8.015625 L 10.84375 -8.015625 C 10.707031 -8.722656 10.394531 -9.285156 9.90625 -9.703125 C 9.425781 -10.117188 8.820312 -10.328125 8.09375 -10.328125 Z M 8.09375 -10.328125" transform="translate(109.847 73.207)"/></g></g></g><g fill="#FFF"><g><g><path d="M 9.671875 -17.375 C 11.242188 -17.375 12.609375 -17.113281 13.765625 -16.59375 C 14.921875 -16.070312 15.8125 -15.328125 16.4375 -14.359375 C 17.070312 -13.390625 17.390625 -12.25 17.390625 -10.9375 C 17.390625 -9.632812 17.070312 -8.503906 16.4375 -7.546875 C 15.8125 -6.585938 14.921875 -5.847656 13.765625 -5.328125 C 12.609375 -4.804688 11.242188 -4.546875 9.671875 -4.546875 L 6.65625 -4.546875 L 6.65625 0 L 1.734375 0 L 1.734375 -17.375 Z M 9.375 -8.40625 C 10.382812 -8.40625 11.144531 -8.625 11.65625 -9.0625 C 12.175781 -9.5 12.4375 -10.125 12.4375 -10.9375 C 12.4375 -11.75 12.175781 -12.378906 11.65625 -12.828125 C 11.144531 -13.273438 10.382812 -13.5 9.375 -13.5 L 6.65625 -13.5 L 6.65625 -8.40625 Z M 9.375 -8.40625" transform="translate(125.775 73.207)"/></g></g></g><g fill="#FFF"><g><g><path d="M 6 -11.828125 C 6.476562 -12.441406 7.101562 -12.898438 7.875 -13.203125 C 8.644531 -13.515625 9.523438 -13.671875 10.515625 -13.671875 L 10.515625 -9.421875 C 10.085938 -9.472656 9.734375 -9.5 9.453125 -9.5 C 8.441406 -9.5 7.648438 -9.222656 7.078125 -8.671875 C 6.515625 -8.128906 6.234375 -7.296875 6.234375 -6.171875 L 6.234375 0 L 1.515625 0 L 1.515625 -13.453125 L 6 -13.453125 Z M 6 -11.828125" transform="translate(144.06 73.207)"/></g></g></g><g fill="#FFF"><g><g><path d="M 8.265625 0.21875 C 6.828125 0.21875 5.523438 -0.078125 4.359375 -0.671875 C 3.203125 -1.265625 2.296875 -2.085938 1.640625 -3.140625 C 0.992188 -4.203125 0.671875 -5.40625 0.671875 -6.75 C 0.671875 -8.070312 0.992188 -9.257812 1.640625 -10.3125 C 2.296875 -11.375 3.195312 -12.195312 4.34375 -12.78125 C 5.5 -13.375 6.804688 -13.671875 8.265625 -13.671875 C 9.722656 -13.671875 11.03125 -13.375 12.1875 -12.78125 C 13.34375 -12.195312 14.242188 -11.378906 14.890625 -10.328125 C 15.535156 -9.285156 15.859375 -8.09375 15.859375 -6.75 C 15.859375 -5.40625 15.535156 -4.203125 14.890625 -3.140625 C 14.242188 -2.085938 13.34375 -1.265625 12.1875 -0.671875 C 11.03125 -0.078125 9.722656 0.21875 8.265625 0.21875 Z M 8.265625 -3.515625 C 9.085938 -3.515625 9.765625 -3.800781 10.296875 -4.375 C 10.828125 -4.945312 11.09375 -5.738281 11.09375 -6.75 C 11.09375 -7.738281 10.828125 -8.515625 10.296875 -9.078125 C 9.765625 -9.640625 9.085938 -9.921875 8.265625 -9.921875 C 7.429688 -9.921875 6.75 -9.640625 6.21875 -9.078125 C 5.695312 -8.515625 5.4375 -7.738281 5.4375 -6.75 C 5.4375 -5.738281 5.695312 -4.945312 6.21875 -4.375 C 6.75 -3.800781 7.429688 -3.515625 8.265625 -3.515625 Z M 8.265625 -3.515625" transform="translate(155.051 73.207)"/></g></g></g><g fill="#FFF"><g><g><path d="M 6.40625 0.21875 C 5.28125 0.21875 4.171875 0.09375 3.078125 -0.15625 C 1.984375 -0.414062 1.109375 -0.753906 0.453125 -1.171875 L 1.859375 -4.390625 C 2.472656 -4.015625 3.203125 -3.710938 4.046875 -3.484375 C 4.890625 -3.265625 5.722656 -3.15625 6.546875 -3.15625 C 7.304688 -3.15625 7.847656 -3.234375 8.171875 -3.390625 C 8.492188 -3.546875 8.65625 -3.769531 8.65625 -4.0625 C 8.65625 -4.363281 8.460938 -4.578125 8.078125 -4.703125 C 7.691406 -4.828125 7.078125 -4.945312 6.234375 -5.0625 C 5.148438 -5.195312 4.234375 -5.367188 3.484375 -5.578125 C 2.734375 -5.796875 2.082031 -6.191406 1.53125 -6.765625 C 0.988281 -7.347656 0.71875 -8.160156 0.71875 -9.203125 C 0.71875 -10.066406 0.972656 -10.832031 1.484375 -11.5 C 2.003906 -12.164062 2.753906 -12.691406 3.734375 -13.078125 C 4.710938 -13.472656 5.890625 -13.671875 7.265625 -13.671875 C 8.242188 -13.671875 9.210938 -13.570312 10.171875 -13.375 C 11.128906 -13.175781 11.929688 -12.894531 12.578125 -12.53125 L 11.171875 -9.328125 C 9.972656 -9.992188 8.679688 -10.328125 7.296875 -10.328125 C 6.546875 -10.328125 6 -10.238281 5.65625 -10.0625 C 5.3125 -9.882812 5.140625 -9.65625 5.140625 -9.375 C 5.140625 -9.0625 5.328125 -8.84375 5.703125 -8.71875 C 6.085938 -8.59375 6.71875 -8.46875 7.59375 -8.34375 C 8.695312 -8.175781 9.613281 -7.984375 10.34375 -7.765625 C 11.070312 -7.546875 11.703125 -7.148438 12.234375 -6.578125 C 12.773438 -6.015625 13.046875 -5.21875 13.046875 -4.1875 C 13.046875 -3.34375 12.789062 -2.585938 12.28125 -1.921875 C 11.769531 -1.253906 11.015625 -0.726562 10.015625 -0.34375 C 9.015625 0.03125 7.8125 0.21875 6.40625 0.21875 Z M 6.40625 0.21875" transform="translate(171.574 73.207)"/></g></g></g></svg>